<svg width="48" height="48" viewBox="0 0 48 48" fill="none" xmlns="http://www.w3.org/2000/svg">
<rect width="48" height="48" rx="8" fill="#F5F7FA"/>
<g clip-path="url(#clip0_1_2955)">
<path d="M43.9965 13.4115C43.9965 13.4453 43.9965 13.4876 43.9877 13.5129C43.9437 13.8426 43.9437 14.1723 43.9701 14.5105C43.9877 14.595 44.0053 14.6795 44.0758 14.7472C44.1903 14.874 44.3664 14.8486 44.4369 14.6964C44.4722 14.6204 44.4722 14.5443 44.4545 14.4682C44.3664 14.147 44.3488 13.8088 44.34 13.4791C44.34 13.4622 44.34 13.4369 44.34 13.4115C44.4369 13.4031 44.525 13.3946 44.6042 13.3946C44.6659 13.3861 44.7188 13.3777 44.7628 13.3523C44.8949 13.2847 44.8949 13.141 44.754 13.0734C44.7011 13.048 44.6307 13.0396 44.569 13.0396C44.3488 13.048 44.1287 13.048 43.9084 13.048C43.8292 13.048 43.7499 13.0565 43.6706 13.0649C43.6266 13.0734 43.5737 13.0734 43.5385 13.0987C43.4768 13.1241 43.4417 13.1664 43.4417 13.2255C43.4504 13.2847 43.4768 13.3185 43.5385 13.3439C43.5737 13.3692 43.6178 13.3777 43.6618 13.3777C43.7675 13.3861 43.882 13.4031 43.9965 13.4115ZM46.4186 13.8004C46.4186 13.8088 46.4274 13.8173 46.4274 13.8173C46.4627 14.0455 46.4979 14.2653 46.5243 14.4851C46.5332 14.5612 46.542 14.6288 46.5948 14.688C46.7093 14.8317 46.8855 14.8148 46.9647 14.6626C47 14.5865 47.0087 14.5105 46.9912 14.4259C46.9383 14.1723 46.9119 13.9187 46.859 13.6736C46.8238 13.5214 46.7798 13.3777 46.7357 13.2424C46.7093 13.1579 46.6477 13.0987 46.542 13.0903C46.4363 13.0734 46.357 13.1241 46.3129 13.2002C46.2601 13.2678 46.2161 13.3354 46.1808 13.4115C46.1192 13.5468 46.0663 13.682 45.9959 13.8088C45.987 13.8426 45.9782 13.868 45.9606 13.8934C45.9519 13.8764 45.9431 13.868 45.9431 13.868C45.8285 13.6567 45.7228 13.4453 45.6083 13.2424C45.5907 13.2255 45.5819 13.2086 45.5731 13.1917C45.5203 13.1156 45.4586 13.0734 45.3617 13.0734C45.2736 13.0818 45.2031 13.1325 45.1592 13.2086C45.1415 13.2424 45.1415 13.2678 45.1327 13.3016C45.0975 13.5721 45.0534 13.8426 45.0182 14.1131C45.0006 14.2653 44.9918 14.4175 44.9918 14.5696C44.983 14.6034 44.9918 14.6457 45.0094 14.6795C45.027 14.7471 45.0799 14.7894 45.1503 14.7979C45.2384 14.8063 45.3 14.781 45.3265 14.7133C45.3529 14.6626 45.3617 14.6204 45.3705 14.5781C45.4058 14.4259 45.4322 14.2822 45.4586 14.1385C45.4762 14.054 45.485 13.9863 45.5115 13.8934C45.5291 13.9272 45.5466 13.9525 45.5643 13.9779C45.6435 14.0793 45.7228 14.1808 45.8197 14.2653C45.9166 14.3329 45.9959 14.3245 46.0751 14.2484C46.0928 14.2315 46.1016 14.223 46.1192 14.2061C46.1985 14.0878 46.2954 13.9694 46.3746 13.8511C46.3922 13.8342 46.401 13.8173 46.4186 13.8004Z" fill="#3A3B7B"/>
<path d="M26.1244 13.5776C26.0632 13.7382 26.0515 13.854 26.0798 13.9502C26.111 14.081 26.192 14.1238 26.302 14.0905C27.3366 13.845 29.6051 14.5419 30.445 14.7362C30.6431 14.777 30.8042 14.5315 30.6691 14.3115C30.4718 14.0984 28.2043 13.1861 27.3391 13.1364C26.9999 13.118 26.3936 13.0345 26.1244 13.5776Z" fill="#3A3B7B"/>
<path d="M34.9904 10.6244C35.1006 10.6855 35.1622 10.7438 35.1927 10.8089C35.238 10.8942 35.2141 10.9533 35.1379 10.9835C34.4541 11.3038 33.5441 12.6829 33.1768 13.1585C33.0877 13.2679 32.8823 13.2044 32.8513 13.0244C32.8577 12.821 33.6643 11.3244 34.1145 10.9167C34.2915 10.7576 34.5837 10.4453 34.9904 10.6244Z" fill="#3A3B7B"/>
<path d="M29.5445 9.94553C29.6769 9.84971 29.8146 9.81614 29.8849 9.87841C30.9167 10.7253 31.4638 12.0664 31.8026 13.2942C31.8154 13.3228 31.8162 13.3639 31.806 13.4067C31.8017 13.4433 31.7739 13.482 31.7296 13.5119C31.6824 13.5449 31.6417 13.555 31.6225 13.5265C31.1703 12.9362 28.5875 10.6393 29.5445 9.94553Z" fill="#3A3B7B"/>
<path d="M7.69524 24.6286C7.94253 24.4519 8.21137 24.3048 8.49586 24.1907C8.7935 24.109 9.11075 24.1225 9.39966 24.2293C9.68851 24.3361 9.93338 24.5302 10.0971 24.7823C10.2435 25.0338 10.3008 25.3242 10.2604 25.6098C10.2199 25.8952 10.084 26.1604 9.87289 26.3653C9.70926 26.5314 9.52348 26.676 9.3205 26.7956C8.41582 27.3565 7.50308 27.8867 6.59039 28.4477C6.40363 28.5881 6.20551 28.714 5.99793 28.8242C5.68217 28.9753 5.32132 29.0158 4.97776 28.9386C4.6342 28.8615 4.32955 28.6715 4.11648 28.4016C3.95719 28.2105 3.82277 28.0015 3.71616 27.7792C2.8515 26.0349 1.95481 24.2982 1.12217 22.5232C0.737866 21.7548 0.425627 20.8711 0.121393 20.0182C-0.010233 19.7703 -0.0359366 19.483 0.0497553 19.2173C0.135447 18.9516 0.325774 18.7284 0.580249 18.5953C0.834727 18.4621 1.13327 18.4296 1.4124 18.5044C1.69152 18.5793 1.92921 18.7557 2.0749 18.9962C2.52271 19.5673 2.91911 20.174 3.25981 20.8097C4.12448 22.3465 4.94912 23.8833 5.78176 25.374C5.83024 25.4564 5.8837 25.5359 5.94188 25.6122C6.56859 25.3593 7.15803 25.0286 7.69524 24.6286Z" fill="#3A3B7B"/>
<path d="M16.6355 24.0925C14.658 26.3132 11.3434 25.7523 9.67813 22.8938C8.4932 20.8652 8.28505 17.5149 10.8631 15.4017C11.4136 14.9593 12.0718 14.658 12.7765 14.5257C13.6405 14.4069 14.5216 14.5532 15.2937 14.9437C16.0658 15.3343 16.6896 15.9491 17.0759 16.7004C18.4849 19.1593 18.2848 22.2944 16.6355 24.0925ZM15.8349 18.9134C15.6248 18.3091 15.2033 17.7933 14.6419 17.4534C14.3243 17.2361 13.9383 17.1304 13.549 17.1542C13.1596 17.178 12.7907 17.3298 12.5043 17.584C11.3595 18.5599 11.1192 20.8729 11.9519 22.2483C12.058 22.4726 12.2139 22.6719 12.4086 22.8324C12.6034 22.9928 12.8324 23.1104 13.0795 23.177C13.3265 23.2436 13.5858 23.2576 13.8391 23.218C14.0924 23.1783 14.3336 23.086 14.5459 22.9476C15.1665 22.4857 15.6218 21.8498 15.8485 21.1283C16.0752 20.4066 16.0621 19.6352 15.8109 18.9211L15.8349 18.9134Z" fill="#3A3B7B"/>
<path d="M24.7055 19.8816C24.5031 19.9234 24.294 19.9259 24.0904 19.8889C23.887 19.8519 23.6932 19.7763 23.5207 19.6665C23.3697 19.5836 23.2397 19.4696 23.14 19.3327C23.0405 19.1958 22.9737 19.0395 22.9446 18.8748C22.9155 18.7103 22.9248 18.5415 22.9718 18.3808C23.0188 18.22 23.1024 18.0713 23.2164 17.9452C23.4152 17.6918 23.6973 17.5105 24.0171 17.4304C24.8518 17.1978 25.7112 17.0561 26.579 17.0078C26.7697 16.9865 26.9629 17.002 27.1472 17.0533C27.3316 17.1047 27.5033 17.1909 27.6525 17.3069C27.8016 17.4228 27.9252 17.5662 28.0158 17.7286C28.1064 17.891 28.1623 18.0692 28.1802 18.2526C28.4304 19.1536 28.4578 20.0982 28.2603 21.0112C27.5398 23.9619 25.0578 24.9762 22.2717 24.031C21.4896 23.7783 20.8039 23.3075 20.3022 22.6786C19.633 21.9214 19.1586 21.0239 18.9171 20.0584C18.7214 19.1986 18.7428 18.3064 18.9797 17.4563C19.2164 16.6061 19.6616 15.8226 20.2781 15.1712C20.8632 14.4633 21.6226 13.9061 22.4879 13.5499C23.0346 13.2606 23.6744 13.1784 24.2813 13.3194C24.4189 13.3559 24.5439 13.4272 24.6432 13.5257C24.7425 13.6243 24.8125 13.7465 24.846 13.8798C24.8795 14.013 24.8752 14.1525 24.8336 14.2836C24.792 14.4148 24.7147 14.5329 24.6095 14.6257C24.4096 14.7994 24.1924 14.9538 23.961 15.0867C23.2492 15.5218 22.6298 16.0823 22.1356 16.7388C21.8116 17.1636 21.5885 17.6514 21.482 18.1678C21.3755 18.6842 21.3881 19.2167 21.5191 19.728C21.7007 20.425 22.1036 21.0507 22.672 21.5183C24.4333 23.0552 26.7231 21.5721 26.3228 19.4743C25.7384 19.6127 25.226 19.7587 24.7055 19.8816Z" fill="#3A3B7B"/>
<path d="M35.4659 24.2154C32.8639 25.7523 29.9016 24.2154 29.2531 20.9881C28.7807 18.6829 29.6774 15.4556 32.8159 14.2261C33.4836 13.9701 34.2079 13.8803 34.9215 13.9648C35.7788 14.1155 36.5654 14.5206 37.17 15.123C37.7747 15.7255 38.1672 16.4949 38.2921 17.3228C38.8205 20.066 37.6196 22.9937 35.4659 24.2154ZM36.3706 19.044C36.3698 18.4057 36.1346 17.788 35.7061 17.2997C35.4771 16.9977 35.146 16.7814 34.7693 16.6874C34.3926 16.5936 33.9937 16.628 33.6405 16.7849C32.2314 17.3689 31.2386 19.4897 31.5989 21.0496C31.6265 21.2944 31.7093 21.5305 31.8418 21.7414C31.9743 21.9522 32.1531 22.1327 32.3659 22.2703C32.5786 22.4079 32.8201 22.4992 33.0735 22.5379C33.3268 22.5766 33.586 22.5617 33.8326 22.4942C34.5775 22.2445 35.2224 21.7778 35.6773 21.1592C36.1323 20.5407 36.3747 19.8012 36.3706 19.044Z" fill="#3A3B7B"/>
<path d="M40.9234 24.8609C40.8841 25.1422 40.7301 25.3969 40.4951 25.5691C40.2601 25.7413 39.9635 25.8169 39.6705 25.7792C39.3775 25.7415 39.112 25.5936 38.9326 25.368C38.7532 25.1426 38.6745 24.8578 38.7137 24.5766C38.753 24.2954 38.9071 24.0406 39.142 23.8684C39.377 23.6962 39.6737 23.6207 39.9667 23.6584C40.2597 23.6961 40.5251 23.8439 40.7046 24.0694C40.884 24.295 40.9628 24.5797 40.9234 24.8609ZM40.2269 14.495C40.3792 14.2718 40.6025 14.1018 40.8637 14.0104C41.1248 13.919 41.4098 13.9111 41.676 13.9879C41.9467 14.0528 42.1858 14.2051 42.3534 14.4191C42.521 14.6332 42.6069 14.896 42.5968 15.1635C42.5614 15.5927 42.4946 16.019 42.3966 16.4391C42.1324 17.8607 41.8762 19.2822 41.596 20.6884C41.4679 21.2494 41.2998 21.7873 41.1156 22.3559C41.0515 22.5336 40.9445 22.6943 40.8034 22.8246C40.7156 22.9227 40.6035 22.9979 40.4775 23.0433C40.3514 23.0888 40.2154 23.103 40.0821 23.0846C39.9488 23.0662 39.8225 23.0158 39.7148 22.9382C39.6072 22.8605 39.5217 22.758 39.4664 22.6402C39.3711 22.4289 39.3194 22.2018 39.3142 21.9717C39.3142 21.0188 39.3142 20.0583 39.3783 19.0978C39.4871 17.727 39.7011 16.3658 40.0187 15.0252C40.0561 14.8456 40.1266 14.6739 40.2269 14.5181V14.495Z" fill="#3A3B7B"/>
<path fill-rule="evenodd" clip-rule="evenodd" d="M4.31263 31.0358C4.2181 31.2383 4.19218 31.4641 4.23837 31.6814C4.2691 31.9679 4.3366 32.2496 4.43933 32.5202C4.56759 32.8516 4.71111 33.1793 4.88807 33.5832C4.92876 33.6762 4.97129 33.7732 5.01579 33.8753C5.25443 34.4225 5.55386 35.1217 5.95326 36.1338C6.06631 36.4213 6.1667 36.7111 6.26779 37.003C6.30862 37.1209 6.34961 37.2392 6.39156 37.3578C6.54193 37.7793 6.80067 38.158 7.14364 38.4582C7.28927 38.6232 7.48244 38.7434 7.69904 38.8035C7.91988 38.8648 8.15474 38.8609 8.37323 38.7924C8.59171 38.7237 8.7836 38.5936 8.924 38.4189C9.06164 38.2476 9.14349 38.0412 9.1594 37.8255C9.2487 37.4054 9.21822 36.9698 9.07104 36.5648C8.83745 35.8924 8.57136 35.2189 8.26452 34.5602L8.26311 34.5573C7.75833 33.5267 7.24523 32.5033 6.70784 31.4795L6.70382 31.4723C6.5465 31.2056 6.34206 30.9671 6.09967 30.7677C5.94232 30.5896 5.72526 30.4696 5.48556 30.4282C5.24076 30.3859 4.98827 30.4285 4.77319 30.5484C4.56972 30.6599 4.40843 30.8305 4.31263 31.0358Z" fill="#3A3B7B"/>
<path fill-rule="evenodd" clip-rule="evenodd" d="M12.0224 28.4982C11.2309 28.3014 10.4043 28.2727 9.60018 28.4142C8.97737 28.473 8.36482 28.6109 7.93947 28.8841C7.72314 29.0231 7.54823 29.2015 7.45094 29.4284C7.35311 29.6565 7.34063 29.9174 7.42079 30.208C7.56717 30.7404 7.75725 31.2581 7.94666 31.7741L7.97734 31.8577L7.97808 31.8595C8.54839 33.3586 9.12414 34.8525 9.70513 36.3413C9.77288 36.576 9.86869 36.8023 9.99062 37.0158L9.9929 37.0197C10.154 37.285 10.3606 37.5222 10.604 37.7214C10.7257 37.8309 10.8762 37.9067 11.0395 37.9406C11.2043 37.9748 11.3757 37.9649 11.535 37.9119C11.6944 37.859 11.8356 37.765 11.9431 37.6403C12.049 37.5177 12.1182 37.3699 12.1437 37.2127C12.2487 36.7854 12.2151 36.3376 12.0472 35.9292C11.9948 35.7918 11.9537 35.6513 11.9104 35.5035C11.896 35.4542 11.8814 35.404 11.8659 35.353C13.1958 34.854 14.6109 34.1831 15.1085 32.6224C15.3033 32.0831 15.3195 31.4991 15.1549 30.9504C14.9901 30.4012 14.6521 29.9144 14.1873 29.557C13.5548 29.0568 12.8159 28.6954 12.0224 28.4982ZM9.82847 30.4125C9.85466 30.4052 9.88104 30.3985 9.9075 30.3922C10.7733 30.2616 11.6591 30.4357 12.4019 30.8823C12.7292 31.1008 12.8633 31.3435 12.8863 31.5771C12.9101 31.8176 12.8189 32.0782 12.6359 32.3287C12.2901 32.802 11.6589 33.1807 11.0888 33.2513C10.6732 32.3327 10.2511 31.3769 9.82847 30.4125Z" fill="#3A3B7B"/>
<path d="M17.2991 26.8166C18.2417 26.3988 19.4092 26.3266 20.3228 26.6204C20.5529 26.6847 20.7525 26.8239 20.8876 27.014C21.0217 27.203 21.0836 27.4307 21.0629 27.6583C21.0616 27.8061 21.0238 27.9515 20.9527 28.0827C20.8803 28.2162 20.7755 28.331 20.6471 28.4175C20.5187 28.5039 20.3706 28.5594 20.2151 28.5793C20.0596 28.5992 19.9015 28.5828 19.754 28.5316L19.7428 28.5277L19.7322 28.5224C19.6568 28.4845 19.5766 28.456 19.4937 28.4374L19.4884 28.4363C18.8457 28.2724 18.2395 28.5439 18.0181 28.8775C17.9125 29.0365 17.8994 29.1971 17.9873 29.3431C18.0815 29.4995 18.3126 29.675 18.7801 29.8001C18.9087 29.834 19.0405 29.8667 19.1741 29.8999C19.5438 29.9918 19.928 30.0872 20.2995 30.2195L20.3009 30.22C22.0148 30.8459 22.653 32.1421 22.4345 33.3613C22.2184 34.567 21.1693 35.6642 19.5916 35.9231C19.0176 36.0452 18.4201 36.0214 17.8585 35.8541C17.2954 35.6862 16.7879 35.3799 16.3863 34.9655L16.3758 34.9547C16.2491 34.7985 16.1638 34.6151 16.126 34.4205C16.0912 34.2448 16.1095 34.0633 16.1787 33.8973C16.2474 33.7323 16.3637 33.5894 16.5138 33.4854C16.6723 33.3674 16.8634 33.2966 17.0634 33.2818C17.2628 33.2671 17.4623 33.3087 17.6373 33.4014C17.8121 33.4825 17.9748 33.5859 18.1207 33.7089L18.1235 33.7111C18.3817 33.9378 18.6941 33.9968 18.9937 33.9421C19.2977 33.8866 19.5835 33.714 19.7673 33.485C19.95 33.2574 20.0233 32.987 19.9363 32.7246C19.8487 32.4602 19.5854 32.164 19.007 31.9164C18.8558 31.8548 18.699 31.8051 18.5359 31.7567C18.492 31.7436 18.4472 31.7307 18.402 31.7175C18.2814 31.6824 18.1573 31.6462 18.0357 31.6063C17.9519 31.5789 17.8687 31.5529 17.7864 31.5271C17.5614 31.4568 17.3421 31.3883 17.131 31.2963C16.6715 31.1462 16.2746 30.8579 15.9992 30.4741C15.7227 30.0888 15.5836 29.628 15.6025 29.1606C15.604 28.0215 16.3515 27.2367 17.2991 26.8166Z" fill="#3A3B7B"/>
<path d="M29.2486 26.6953C29.0659 26.6096 28.8638 26.5689 28.6606 26.5769C28.4574 26.585 28.2594 26.6414 28.0846 26.7412C27.9109 26.8403 27.7655 26.9792 27.6613 27.1453C27.5658 27.2852 27.4996 27.4417 27.4667 27.606C27.4337 27.7702 27.4345 27.9389 27.4689 28.1027C27.503 28.3132 27.5407 28.5179 27.578 28.7198C27.6397 29.0539 27.6997 29.3805 27.7393 29.7135L27.7408 29.7219C27.831 30.2441 27.8782 30.7722 27.8824 31.3015L27.8828 31.309C27.9136 31.8805 27.7107 32.441 27.3176 32.8714L27.3114 32.879C27.1835 33.0363 27.0124 33.1564 26.8174 33.2258C26.6224 33.2952 26.4112 33.3112 26.2073 33.2719C26.0033 33.2326 25.8149 33.1397 25.6629 33.0034C25.5109 32.8672 25.4012 32.6925 25.3465 32.5C25.2297 32.0942 25.162 31.6768 25.1449 31.2562L25.3444 28.207C25.3474 28.1672 25.3507 28.1264 25.3541 28.0851C25.3617 27.9925 25.3695 27.8982 25.3727 27.8102C25.3774 27.6808 25.3734 27.5476 25.342 27.4216C25.3098 27.2928 25.2487 27.1703 25.1402 27.066C25.0327 26.9627 24.8877 26.8865 24.7052 26.8346C24.3752 26.7429 24.0962 26.7458 23.8636 26.8405C23.631 26.9353 23.4716 27.1111 23.3588 27.3142C23.2469 27.5157 23.175 27.7541 23.1206 27.993C23.0802 28.1702 23.0478 28.3563 23.017 28.5334C23.0063 28.5944 22.9959 28.6543 22.9853 28.7125L22.9851 28.7142C22.8202 29.6854 22.7711 30.6716 22.8388 31.6535C22.8514 32.1841 22.9667 32.7079 23.1789 33.1981C23.4182 33.8305 23.8518 34.3785 24.4223 34.7697C24.994 35.1616 25.6762 35.3776 26.3787 35.389C27.0811 35.4004 27.7706 35.2067 28.3558 34.8336C28.9401 34.461 29.3929 33.927 29.6544 33.3023C30.0201 32.5064 30.1919 31.6409 30.1564 30.7717C30.1349 30.1371 30.0989 29.4977 30.0631 28.8615C30.0456 28.5494 30.028 28.238 30.0123 27.9284C30.0044 27.6181 29.8978 27.3175 29.7067 27.0669C29.5884 26.9086 29.4311 26.7808 29.2486 26.6953Z" fill="#3A3B7B"/>
<path d="M35.7175 31.4764C35.699 31.499 35.6794 31.5224 35.659 31.5467C35.5104 30.7236 35.3726 29.9008 35.2346 29.0768C35.1851 28.7811 35.1354 28.4842 35.0853 28.1881L35.0797 28.1551L35.0614 28.1266C35.027 28.0728 35.0236 28.0202 35.0236 27.9079V27.8949L35.0215 27.882C34.9842 27.6501 34.8748 27.4342 34.7079 27.2627C34.5413 27.0917 34.3251 26.9727 34.0872 26.921C33.8497 26.8648 33.6001 26.8772 33.3699 26.9567C33.1403 27.036 32.9401 27.1784 32.7944 27.3663C32.6733 27.5104 32.574 27.6703 32.4996 27.8412C32.3307 28.2092 32.1604 28.5782 31.9896 28.9481L31.9866 28.9545C31.5602 29.8781 31.1309 30.8079 30.7141 31.745L30.7128 31.748C30.4569 32.3556 30.2457 32.9958 30.0352 33.6341C29.9932 33.7615 29.9511 33.8889 29.9088 34.0159C29.8328 34.2173 29.7995 34.4312 29.8109 34.6451C29.7971 34.8366 29.8448 35.0276 29.9478 35.1923C30.0528 35.3603 30.2102 35.4926 30.3976 35.5704C30.5962 35.654 30.8182 35.6717 31.0286 35.6208C31.2385 35.57 31.4248 35.4537 31.5584 35.2903C31.7289 35.0889 31.8756 34.8693 31.9953 34.6367C32.3484 33.9434 32.6859 33.2418 33.0218 32.5431C33.1518 32.2729 33.2781 32.0309 33.4217 31.7673C33.4316 31.7998 33.4417 31.8315 33.4521 31.8633C33.6027 32.4996 33.8569 33.1091 34.2053 33.6695C34.2712 33.7882 34.3631 33.8919 34.4745 33.9736C34.5873 34.0563 34.7175 34.1143 34.856 34.1437C34.9946 34.1732 35.1381 34.1733 35.2767 34.1441C35.4151 34.115 35.5457 34.0569 35.6585 33.9747L35.8819 33.8142L37.6158 32.4125L37.5132 33.0396C37.3725 33.9016 37.2328 34.7565 37.0844 35.6115C36.9874 35.9905 36.9875 36.3863 37.0849 36.7652C37.127 36.9784 37.2344 37.1747 37.3934 37.329C37.5538 37.4847 37.7591 37.5904 37.9828 37.6326C38.2065 37.6747 38.4383 37.6513 38.648 37.5655C38.8547 37.4809 39.0305 37.3395 39.1533 37.1592C39.4392 36.8188 39.6171 36.4066 39.666 35.9718C39.7396 35.3578 39.8227 34.7355 39.9059 34.1133C40.0017 33.3961 40.0976 32.6792 40.1785 31.976L40.1787 31.9738C40.2566 31.204 40.2943 30.4311 40.2917 29.6578C40.3087 29.4134 40.2453 29.1699 40.1102 28.9618C39.9747 28.753 39.7739 28.5907 39.5366 28.4978C39.2898 28.3901 39.0135 28.3613 38.7484 28.4158C38.485 28.4698 38.2466 28.6031 38.0677 28.7961C37.7479 29.08 37.4479 29.3838 37.1696 29.7055L37.1677 29.7076C36.8639 30.071 36.5621 30.4415 36.2624 30.8096C36.0801 31.0333 35.8983 31.2566 35.7175 31.4764Z" fill="#3A3B7B"/>
</g>
<defs>
<clipPath id="clip0_1_2955">
<rect width="47" height="29" fill="white" transform="translate(0 9.8468)"/>
</clipPath>
</defs>
</svg>
